<?xml version="1.0" standalone="no"?>
<!DOCTYPE svg PUBLIC "-//W3C//DTD SVG 20010904//EN"
 "http://www.w3.org/TR/2001/REC-SVG-20010904/DTD/svg10.dtd">
<svg version="1.0" xmlns="http://www.w3.org/2000/svg"
 width="180.000000pt" height="180.000000pt" viewBox="0 0 180.000000 180.000000"
 preserveAspectRatio="xMidYMid meet">
<metadata>
Created by potrace 1.14, written by Peter Selinger 2001-2017
</metadata>
<g transform="translate(0.000000,180.000000) scale(0.100000,-0.100000)"
fill="#000000" stroke="none">
<path d="M629 1540 c-216 -109 -258 -133 -267 -157 -22 -55 -232 -823 -232
-848 0 -51 46 -79 403 -249 192 -91 359 -166 372 -166 13 0 181 75 372 166
358 170 403 198 403 250 0 25 -210 792 -232 847 -9 24 -51 48 -269 158 -143
71 -267 129 -276 128 -10 0 -133 -58 -274 -129z m745 -177 c-10 -7 -27 -10
-39 -7 -16 4 -84 -26 -226 -96 l-204 -102 -206 102 c-134 67 -212 101 -223 97
-10 -4 -27 -2 -39 4 -19 11 5 25 223 134 l245 123 243 -122 c207 -104 240
-123 226 -133z m-904 -168 c9 -11 0 -60 -45 -245 -58 -233 -70 -260 -100 -229
-12 12 -6 48 41 238 61 251 71 275 104 236z m-132 -581 c4 -26 -26 -40 -45
-21 -8 7 -11 21 -7 31 9 24 48 17 52 -10z"/>
</g>
</svg>
