<!-- icon666.com - MILLIONS vector ICONS FREE --><svg viewBox="0 0 60 60" xmlns="http://www.w3.org/2000/svg"><g id="Page-1" fill="none" fill-rule="evenodd"><g id="020---Cube-Of-Chocolate" fill-rule="nonzero"><path id="Shape" d="m49.94 11.03-19.94 9.97-19.94-9.97c.1891404-.2630972.4397536-.4759468.73-.62l18.32-9.2c.5603014-.27999251 1.2196986-.27999251 1.78 0l18.32 9.2c.2902464.1440532.5408596.3569028.73.62z" fill="#ff9401" style="fill: rgb(249, 175, 72);"></path><path id="Shape" d="m49.21 10.41-18.32-9.2c-.5603014-.27999251-1.2196986-.27999251-1.78 0l-.61.306 17.71 8.894c.2902464.1440532.5408596.3569028.73.62l-18.44 9.22 1.5.75 19.94-9.97c-.1891404-.2630972-.4397536-.4759468-.73-.62z" fill="#f17c00" style="fill: rgb(249, 175, 72);"></path><path id="Shape" d="m30 21v38.0000037c-.4601891.0007105-.9146783-.1018059-1.33-.3000037l-25.94-12.43c-1.31676309-.6257359-2.00150958-2.1002514-1.63-3.51l8.66-31.1c.06296328-.2257132.16445645-.4388488.3-.63z" fill="#9c522d"></path><path id="Shape" d="m27 19v38.9l1.67.8c.4153217.1981978.8698109.3007142 1.33.3000037v-38.0000037z" fill="#783e22"></path><path id="Shape" d="m57.27 46.27-25.94 12.43c-.4153217.1981978-.8698109.3007142-1.33.3000037v-38.0000037l19.94-9.97c.1355435.1911512.2370367.4042868.3.63l8.66 31.1c.3715096 1.4097486-.3132369 2.8842641-1.63 3.51z" fill="#783e22"></path><path id="Shape" d="m13.553 13.9 15.447 7.718v22.382c0 .5522847.4477153 1 1 1s1-.4477153 1-1v-22.382l15.447-7.718c.4942949-.2468713.6948713-.8477051.448-1.342s-.8477051-.6948713-1.342-.448l-15.553 7.772-15.553-7.777c-.4942949-.2468713-1.0951287-.0462949-1.342.448s-.0462949 1.0951287.448 1.342z" fill="#000"></path><path id="Shape" d="m28.239 59.6c1.1128173.536017 2.4091827.536017 3.522 0l25.944-12.43c1.7501544-.8378806 2.6555546-2.8032922 2.155-4.678l-8.66-31.098c-.2271812-.8174277-.7889985-1.50090545-1.547-1.882l-18.31-9.194c-.8456219-.42193987-1.8403781-.42193987-2.686 0l-18.312 9.194c-.75766141.3805107-1.31893669 1.0638497-1.545 1.881l-8.663 31.107c-.49628528 1.8743107.41246874 3.8363455 2.163 4.67zm-26.174-16.572 8.661-31.1c.0748542-.2731326.2620104-.5017175.515-.629l18.313-9.193c.1384529-.06939251.291131-.10567923.446-.106.1543626-.00125719.3069517.03295562.446.1l18.313 9.2c.2530276.1279854.44037.3567175.516.63l8.657 31.089c.2474039.9431106-.2106454 1.9289032-1.091 2.348l-25.941 12.433c-.5668346.273034-1.2271654.273034-1.794 0l-25.946-12.434c-.87828287-.4160627-1.33767478-1.3969379-1.095-2.338z" fill="#000"></path><g fill="#fff"><path id="Shape" d="m8.227 37c-.08088727.0002243-.16149419-.0095157-.24-.029-.53617745-.1315678-.86429168-.6727549-.733-1.209l4.168-17c.1314438-.5365446.6729554-.8649438 1.2095-.7335s.8649438.6729554.7335 1.2095l-4.168 17c-.10951261.4469166-.50986181.7614178-.97.762z" fill="#fff"></path><circle id="Oval" cx="7" cy="41" r="1" fill="#fff"></circle></g></g></g></svg>